<?xml version="1.0" ?><svg viewBox="0 0 512 512" xmlns="http://www.w3.org/2000/svg"><title/><g id="Plane"><path d="M453.1426,68.009a38.067,38.067,0,0,0-57.9463-4.8845l-75.8086,75.81L121.2515,80.6563a17.0685,17.0685,0,0,0-16.8906,4.3071l-21.86,21.8574a17.0762,17.0762,0,0,0,2.85,26.445L231.3538,226.967l-13.3188,13.32a283.67,283.67,0,0,0-31.9662,38.36L85.1394,267.88a17.1585,17.1585,0,0,0-13.9508,4.9309L57.2007,286.7966a17.157,17.157,0,0,0,2.8644,26.57l84.476,54.2122,54.2945,84.6024a17.0345,17.0345,0,0,0,26.3813,2.8458L239.352,440.891a17.0371,17.0371,0,0,0,4.8927-13.8534l-10.77-100.9862a283.4993,283.4993,0,0,0,38.3584-31.9674l13.3188-13.3177L378.76,426.62a17.2172,17.2172,0,0,0,26.6631,2.876L427.0977,407.82a17.2182,17.2182,0,0,0,4.3429-17.0332L373.187,192.7336l74.3707-74.3718C460.9576,104.9607,464.2186,83.3862,453.1426,68.009Z"/></g></svg>