<?xml version="1.0" ?><svg viewBox="0 0 512 512" xmlns="http://www.w3.org/2000/svg"><title/><g id="Camping_tent"><path d="M465,352.9063a17.0965,17.0965,0,0,0-17.0981,17.0982V401.19L275.7445,103.0118l27.3937-47.4629a17.0975,17.0975,0,0,0-29.6133-17.0981L256,68.8155,238.4658,38.4508a17.1,17.1,0,1,0-29.6133,17.1074l27.4018,47.4536L64.0981,401.19V370.0045a17.0981,17.0981,0,1,0-34.1962,0v94.9629a17.03,17.03,0,0,0,1.19,5.9259c.1786.48.3548.93.574,1.3893.1983.4174.2934.87.5277,1.2756a16.9877,16.9877,0,0,0,2.6927,3.5022c.0116.0139.0186.0278.03.0394a16.97,16.97,0,0,0,4.8184,3.2494c.4465.2111.8825.385,1.3487.559A16.9047,16.9047,0,0,0,47,482.1026H189.4954V360.5068a66.5,66.5,0,0,1,133,0V482.1026H465a16.8987,16.8987,0,0,0,5.9155-1.1944c.4673-.174.9057-.35,1.3521-.5613a16.951,16.951,0,0,0,4.8161-3.2471c.0116-.0116.0186-.0255.03-.0394a17.026,17.026,0,0,0,2.6927-3.5022c.2343-.4036.3282-.8535.5265-1.271.22-.4616.3978-.9138.5775-1.3986a17.0388,17.0388,0,0,0,1.1875-5.9212V370.0045A17.0965,17.0965,0,0,0,465,352.9063Z"/></g></svg>