<?xml version="1.0" ?><svg id="Icons" style="enable-background:new 0 0 32 32;" version="1.1" viewBox="0 0 32 32" xml:space="preserve" xmlns="http://www.w3.org/2000/svg" xmlns:xlink="http://www.w3.org/1999/xlink"><style type="text/css">
	.st0{fill:none;stroke:#000000;stroke-width:2;stroke-linecap:round;stroke-linejoin:round;stroke-miterlimit:10;}
</style><path d="M21,2H11C9.3,2,8,3.3,8,5v22c0,1.7,1.3,3,3,3h10c1.7,0,3-1.3,3-3V5C24,3.3,22.7,2,21,2z M17,27h-2c-0.6,0-1-0.4-1-1  s0.4-1,1-1h2c0.6,0,1,0.4,1,1S17.6,27,17,27z M22,22H10V8h12V22z"/></svg>